<svg xmlns="http://www.w3.org/2000/svg" viewBox="0 0 118 51"> <path d="M10.68 31.87h4.83L23.7 50h11.48l-9.59-19.53c5.46-1.54 8.61-6.93 8.61-13.79 0-9.45-5.39-15.54-14.98-15.54H.32V50h10.36V31.87zm0-8.12V9.61h6.02c4.9 0 6.58 1.75 6.58 6.02v2.1c0 4.27-1.68 6.02-6.58 6.02h-6.02zm46.55 27.09c12.25 0 18.69-6.72 18.69-15.89 0-7.7-4.55-12.32-12.39-13.72l-5.11-.91c-4.76-.84-6.72-2.31-6.72-5.67 0-3.85 2.38-5.81 7.07-5.81 4.41 0 8.05 1.75 10.64 4.62l5.95-6.65C71.93 2.82 66.19.3 58.7.3 47.64.3 41.13 5.76 41.13 15.14c0 7.14 3.71 12.53 12.46 14l5.11.84c4.76.77 6.58 2.38 6.58 5.81 0 4.2-2.73 6.51-7.7 6.51-4.34 0-8.75-1.82-12.32-5.74l-6.09 6.72c3.71 4.62 9.94 7.56 18.06 7.56zM84.39 50h18.76c9.24 0 14.77-5.25 14.77-13.44 0-6.58-3.5-10.22-9.52-11.69v-.42c5.11-1.47 7.98-4.76 7.98-10.29 0-7.98-5.32-13.02-14.84-13.02H84.39V50zm10.22-7.35V28.86h5.32c4.97 0 7.28 1.47 7.28 5.88v2.03c0 4.48-2.31 5.88-7.28 5.88h-5.32zm0-20.79V8.49h3.99c4.9 0 7.07 1.33 7.07 5.6v2.1c0 4.27-2.17 5.67-7.07 5.67h-3.99z" fill="currentColor"/> </svg>